<svg width="40" height="40" viewBox="0 0 40 40" fill="none" xmlns="http://www.w3.org/2000/svg">
<g id="apt" clip-path="url(#clip0_21825_157509)">
<path id="Vector" d="M0.121882 18.3474C0.0810625 17.94 0.048643 17.8244 0.0614149 17.7139C0.402627 14.7643 2.03444 13.2897 4.95685 13.2902C9.6997 13.2935 14.4427 13.2844 19.1853 13.3201C20.5109 13.33 21.5928 13.0459 22.5077 11.9537C23.7689 10.4482 24.2605 10.4498 25.4682 11.9305C26.362 13.0263 27.3877 13.3605 28.754 13.317C31.4942 13.2297 34.2433 13.3823 36.9803 13.2535C38.5039 13.1819 39.194 13.7464 39.3848 15.1885C39.504 16.0893 39.7175 16.9774 39.9388 18.1328C39.2504 18.2136 38.6816 18.3359 38.1123 18.3384C34.2265 18.3555 30.3396 18.2947 26.4554 18.3742C24.9657 18.4047 23.7881 18.0964 22.9212 16.8031C22.117 15.6034 21.1289 15.5871 20.3075 16.7456C19.3272 18.128 18.0448 18.404 16.4464 18.3769C11.6477 18.2952 6.84671 18.3475 2.04659 18.3474H0.121882Z" fill="black"/>
<path id="Vector_2" d="M0.210938 23.6578C4.21537 23.6578 7.92233 23.5991 11.626 23.6845C13.2823 23.7227 14.6479 23.4316 15.6649 21.9971C16.4403 20.9035 17.3967 20.8762 18.1582 22.0008C19.1567 23.4755 20.5292 23.7081 22.1765 23.6845C27.2641 23.6115 32.3534 23.6579 37.442 23.6579C38.0614 23.6579 38.6808 23.6579 39.7197 23.6579C39.1573 25.3321 38.7554 26.7829 38.1534 28.1449C37.9992 28.4939 37.2139 28.7308 36.7167 28.7339C30.5991 28.7728 24.4801 28.8161 18.3649 28.6924C17.5112 28.6751 16.5184 27.9205 15.8676 27.2404C14.848 26.175 14.0041 25.9492 13.0847 27.1979C12.0965 28.5401 10.7964 28.8842 9.19399 28.7876C7.314 28.6743 5.41689 28.676 3.53696 28.7897C2.20364 28.8703 1.51923 28.347 1.2031 27.1147C0.935048 26.0698 0.610284 25.0395 0.210938 23.6578Z" fill="black"/>
<path id="Vector_3" d="M4.00781 8.00012C12.0601 -2.88291 28.5187 -2.4035 35.6711 7.86326C33.4662 8.01757 31.3382 8.59824 29.8387 6.2963C29.1212 5.19494 28.182 5.37034 27.4725 6.35497C26.4564 7.76523 25.1185 8.05722 23.4565 8.03282C17.6889 7.94814 11.9193 8.00013 6.15049 8.00012H4.00781Z" fill="black"/>
<path id="Vector_4" d="M34.319 33.5967C27.7844 41.5745 13.2027 42.5804 5.71094 33.8658C6.41027 33.2171 7.16969 32.6243 7.79021 31.9102C8.67986 30.8865 9.55449 30.8189 10.3101 31.9131C11.3159 33.3694 12.6588 33.6452 14.3171 33.625C20.2601 33.5527 26.2044 33.5967 32.1483 33.5967H34.319Z" fill="black"/>
</g>
<defs>
<clipPath id="clip0_21825_157509">
<rect width="40" height="40" fill="white"/>
</clipPath>
</defs>
</svg>
