<svg width="40" height="40" viewBox="0 0 40 40" fill="none" xmlns="http://www.w3.org/2000/svg">
<g id="arb" clip-path="url(#clip0_21825_157514)">
<path id="Vector" d="M20 40C31.1504 40 40 30.9735 40 20C40 8.84956 30.9734 0 20 0C8.84956 0 0 9.02655 0 20C-1.5625e-06 30.9735 9.02655 40 20 40Z" fill="#2C374B"/>
<path id="Vector_2" d="M29.8152 23.5398L24.5055 15.3983L22.5586 18.5841L27.6913 26.9027L29.9922 25.8407L29.8152 23.5398Z" fill="#24A2EE"/>
<path id="Vector_3" d="M27.3372 27.9646L22.0274 19.823L19.7266 23.3628L23.9743 30.0885L26.6292 29.0265L27.3372 27.9646Z" fill="#24A2EE"/>
<path id="Vector_4" fill-rule="evenodd" clip-rule="evenodd" d="M10.2672 14.3364L20.0017 8.67267L29.7362 14.3364V25.6638L20.0017 31.3275L12.7451 27.2567L11.8601 28.8497L19.8247 33.4514C20.0017 33.6284 20.1787 33.6284 20.3557 33.4514L31.5061 27.0798C31.6831 26.9028 31.8601 26.7258 31.8601 26.5488V13.8054C31.8601 13.6284 31.6831 13.4514 31.5061 13.2744L20.3557 6.90276C20.1787 6.72577 20.0017 6.72577 19.8247 6.90276L8.67429 13.0975C8.4973 13.2744 8.32031 13.4514 8.32031 13.6284V26.3718C8.32031 26.5488 8.49731 26.7258 8.67429 26.9028L10.9752 28.1417L12.0371 26.5488L10.4442 25.6638V14.3364L10.2672 14.3364Z" fill="#98BCDC"/>
<path id="Vector_5" d="M24.2486 14.3362H20.5318L11.7539 28.7822L14.7479 30.5363L24.2486 14.3362Z" fill="white"/>
<path id="Vector_6" d="M14.869 15.7524C15.7539 14.3364 18.586 14.4522 19.6479 14.6292L10.9752 28.1417C10.6212 27.9648 9.73624 27.6108 9.20527 27.2568C8.4973 26.9028 8.32031 26.9028 8.32031 26.3718V25.6639C10.2672 22.832 13.984 17.1683 14.869 15.7524Z" fill="white"/>
</g>
<defs>
<clipPath id="clip0_21825_157514">
<rect width="40" height="40" fill="white"/>
</clipPath>
</defs>
</svg>
