<svg width="40" height="40" viewBox="0 0 40 40" fill="none" xmlns="http://www.w3.org/2000/svg">
<g id="axs" clip-path="url(#clip0_21825_157521)">
<path id="SVGID" fill-rule="evenodd" clip-rule="evenodd" d="M20 0C31.044 0 40 8.956 40 20C40 31.044 31.044 40 20 40C8.956 40 0 31.044 0 20C0 8.956 8.956 0 20 0Z" fill="#0055D5"/>
<path id="SVGID-2" fill-rule="evenodd" clip-rule="evenodd" d="M10.8809 13.2911C10.8809 13.2911 8.72894 11.586 8.58094 15.797C8.43294 19.0604 8.43694 25.3967 9.96094 28.3904C10.6049 29.5165 11.4649 29.1715 13.0649 28.0494C14.4569 27.0303 19.4929 22.4307 21.6249 20.4125C23.7569 18.3942 28.0809 12.6051 28.9809 16.5385C29.3369 18.192 29.7769 19.5957 29.4409 23.2634C29.3369 24.3935 28.8489 25.25 26.6249 23.7194C24.9449 22.6488 23.3489 21.4989 23.3489 21.4989C23.3489 21.4989 23.0409 20.9517 22.3129 21.8399C21.7409 22.5497 21.4529 22.7242 22.3689 23.2634C23.2889 23.8027 27.9409 26.9827 29.7249 27.4784C31.1969 27.9027 32.0369 27.8947 32.0809 25.0279C32.0729 22.7519 31.9409 16.2372 31.1049 13.4616C30.4729 11.7328 29.5449 10.9477 27.5409 12.8906C25.5369 14.8335 19.2169 20.9081 15.7609 23.6599C13.4689 25.365 12.4889 26.9034 11.6249 24.0604C11.0169 21.9073 10.2289 15.2062 12.7169 16.483C14.2729 17.2205 15.0489 17.2166 14.4409 17.6805C13.8329 18.1404 12.0849 19.7305 12.0849 19.7305C12.0849 19.7305 11.5449 20.1627 11.7969 21.0984C12.0489 21.7527 12.0489 22.0778 13.4049 20.813C14.7609 19.5481 15.7609 18.5925 15.7609 18.5925C15.7609 18.5925 15.9769 18.2554 16.6209 18.878C17.2649 19.5005 17.3689 19.675 17.3689 19.675C17.3689 19.675 17.5409 20.1389 18.2289 19.334C18.9209 18.529 19.3649 18.0373 18.0569 17.284C16.7529 16.5227 10.8809 13.2911 10.8809 13.2911Z" fill="white"/>
</g>
<defs>
<clipPath id="clip0_21825_157521">
<rect width="40" height="40" fill="white"/>
</clipPath>
</defs>
</svg>
