<svg width="40" height="40" viewBox="0 0 40 40" fill="none" xmlns="http://www.w3.org/2000/svg">
<g clip-path="url(#clip0_21825_157518)">
<path d="M40 20C40 31.0432 31.045 39.9968 19.9952 39.9984C8.95343 39.9984 -0.0015994 31.0432 8.57626e-07 19.9984C-0.00319965 8.9536 8.95183 0 19.9984 0C31.045 0 40 8.9552 40 20Z" fill="#EAB300"/>
<path d="M27.8701 15.1008C27.6125 12.4224 25.3001 11.5248 22.378 11.2688V7.552H20.1169V11.1696C19.5232 11.1696 18.9151 11.1808 18.3118 11.1936V7.552H16.0506L16.049 11.2656C15.5593 11.2752 15.0777 11.2848 14.6088 11.2848V11.2736L11.4899 11.272V13.688C11.4899 13.688 13.1605 13.656 13.1317 13.6864C14.0487 13.6864 14.3463 14.2176 14.4328 14.6768V18.9104C14.4968 18.9104 14.5784 18.9136 14.6712 18.9264H14.4328L14.4312 24.8576C14.3911 25.1456 14.2215 25.6048 13.5814 25.6064C13.6102 25.632 11.938 25.6064 11.938 25.6064L11.4883 28.3072H14.4328C14.98 28.3072 15.5193 28.3168 16.0474 28.32L16.049 32.0784H18.3086V28.36C18.9279 28.3728 19.528 28.3776 20.1153 28.3776L20.1137 32.0784H22.3748V28.328C26.177 28.1104 28.8415 27.152 29.1711 23.5808C29.4384 20.7056 28.0861 19.4208 25.9274 18.9024C27.2412 18.2368 28.0621 17.0608 27.8701 15.1008ZM24.7048 23.136C24.7048 25.944 19.896 25.6256 18.3614 25.6256V20.6448C19.896 20.648 24.7048 20.208 24.7048 23.136ZM23.6518 16.1104C23.6518 18.6656 19.6384 18.3664 18.3614 18.368V13.8528C19.64 13.8528 23.6534 13.4464 23.6518 16.1104Z" fill="white"/>
<path d="M14.4375 18.8112H14.7736V19.0592H14.4375V18.8112Z" fill="white"/>
</g>
<defs>
<clipPath id="clip0_21825_157518">
<rect width="40" height="40" fill="white"/>
</clipPath>
</defs>
</svg>
