<svg width="40" height="40" viewBox="0 0 40 40" fill="none" xmlns="http://www.w3.org/2000/svg">
<g id="egld" clip-path="url(#clip0_21825_157520)">
<path id="Vector" d="M20 40C31.0457 40 40 31.0457 40 20C40 8.9543 31.0457 0 20 0C8.9543 0 0 8.9543 0 20C0 31.0457 8.9543 40 20 40Z" fill="black"/>
<path id="Vector_2" d="M21.4043 20.0015L33.0538 13.9591L31.0954 10.3046L20.428 14.4933C20.1534 14.6013 19.8488 14.6013 19.5741 14.4933L8.90383 10.3046L6.94531 13.9591L18.5949 20.0015L6.94531 26.0409L8.90383 29.6954L19.5712 25.5067C19.8458 25.3987 20.1504 25.3987 20.425 25.5067L31.0923 29.6954L33.0509 26.0409L21.4013 19.9986L21.4043 20.0015Z" fill="#23F7DD"/>
</g>
<defs>
<clipPath id="clip0_21825_157520">
<rect width="40" height="40" fill="white"/>
</clipPath>
</defs>
</svg>
