<svg width="40" height="40" viewBox="0 0 40 40" fill="none" xmlns="http://www.w3.org/2000/svg">
<g id="flow" clip-path="url(#clip0_21825_157519)">
<path id="Vector" d="M20.3382 37.3115C29.8427 37.3115 37.5475 29.6066 37.5475 20.1021C37.5475 10.5977 29.8427 2.89282 20.3382 2.89282C10.8338 2.89282 3.12891 10.5977 3.12891 20.1021C3.12891 29.6066 10.8338 37.3115 20.3382 37.3115Z" fill="white"/>
<path id="Vector_2" d="M20 0C8.95431 0 0 8.95432 0 20C0 31.0457 8.95431 40 20 40C31.0457 40 40 31.0457 40 20C40 8.95432 31.0457 0 20 0ZM31.4001 14.0701H25.2362C25.2362 14.0701 23.1323 14.0045 23.1323 16.8097V16.8466H28.8533V22.3461H23.1323V24.2194C23.1323 26.3136 22.3783 28.3541 20.9524 29.8878C19.7399 31.1921 17.9091 32.3117 15.1968 32.3117C8.7007 32.3117 7.59341 26.1478 7.59341 24.4131C7.59341 22.6783 9.1067 16.8466 16.1195 16.8466H17.4211C17.5408 14.2419 17.9685 12.8173 19.4967 10.978C21.5821 8.46809 24.7563 8.61572 25.6053 8.61572H31.4001L31.4001 14.0701Z" fill="#00EF8B"/>
<path id="Vector_3" d="M17.375 20.2423C17.375 21.0078 17.3837 21.7101 17.3795 22.3462H23.1329V16.8467H17.4217C17.3781 17.7962 17.375 18.9012 17.375 20.2423Z" fill="#00EF8B"/>
<path id="Vector_4" d="M13.1659 24.4901C13.1317 25.1536 13.5591 26.5354 14.9924 26.5354C17.112 26.5354 17.3601 25.0378 17.3776 22.3462H15.6752C15.6752 22.3462 13.2761 22.3585 13.1659 24.4901Z" fill="#00EF8B"/>
</g>
<defs>
<clipPath id="clip0_21825_157519">
<rect width="40" height="40" fill="white"/>
</clipPath>
</defs>
</svg>
