<svg width="40" height="40" viewBox="0 0 40 40" fill="none" xmlns="http://www.w3.org/2000/svg">
<g clip-path="url(#clip0_21825_157511)">
<path d="M20.3382 38.8522C29.8427 38.8522 37.5475 31.1474 37.5475 21.6429C37.5475 12.1385 29.8427 4.43359 20.3382 4.43359C10.8338 4.43359 3.12891 12.1385 3.12891 21.6429C3.12891 31.1474 10.8338 38.8522 20.3382 38.8522Z" fill="white"/>
<path d="M25.7102 18.4414H14.5312V21.2324H25.7102V18.4414Z" fill="#010101"/>
<path d="M20 0C8.95398 0 0 8.95398 0 20C0 31.046 8.95398 40 20 40C31.046 40 40 31.046 40 20C40 8.95397 31.046 0 20 0ZM28.127 28.6488H25.587V23.2488H14.4081V28.6488H11.8681V11.1396H14.4081V16.4115H25.587V11.1396H28.127V28.6488Z" fill="#010101"/>
</g>
<defs>
<clipPath id="clip0_21825_157511">
<rect width="40" height="40" fill="white"/>
</clipPath>
</defs>
</svg>
