<svg width="40" height="40" viewBox="0 0 40 40" fill="none" xmlns="http://www.w3.org/2000/svg">
<g id="imx" clip-path="url(#clip0_21825_157516)">
<path id="Vector" d="M20 40C31.0457 40 40 31.0457 40 20C40 8.9543 31.0457 0 20 0C8.9543 0 0 8.9543 0 20C0 31.0457 8.9543 40 20 40Z" fill="#1B1F2B"/>
<path id="Vector_2" d="M30.2267 9.4165H32.9615L21.8724 22.0791C21.5914 22.3975 21.5727 22.8846 21.8537 23.2217L28.2412 30.6582H25.394L19.4935 23.765L19.1938 23.3903C18.9128 23.0719 18.9315 22.5661 19.2125 22.2477L30.2267 9.4165Z" fill="#17B5CB"/>
<path id="Vector_3" d="M24.0636 23.2218C23.8763 23.0158 23.8201 22.7161 23.8763 22.4538C23.9325 22.304 24.0261 22.1541 24.1385 22.0417L24.869 21.2363L33.0173 30.6583H30.4323C30.4323 30.6583 25.6558 25.0763 24.0636 23.2218Z" fill="#17B5CB"/>
<path id="Vector_4" d="M9.82768 30.6582H6.98047L15.7094 20.5618C15.9904 20.2434 15.9904 19.7564 15.7094 19.4379L7.0554 9.4165H9.79022L18.5004 19.5129C18.7252 19.8126 18.7627 20.2434 18.5192 20.5244C16.2339 23.1655 9.82768 30.6582 9.82768 30.6582Z" fill="#17B5CB"/>
<path id="Vector_5" d="M14.5873 9.4165H11.9648L20.0382 18.7636C20.0382 18.7636 20.0569 18.7449 20.956 17.6772C21.1995 17.3962 21.2557 17.0403 20.9748 16.7593C19.2889 15.036 14.5873 9.4165 14.5873 9.4165Z" fill="#17B5CB"/>
<path id="Vector_6" d="M22.4547 15.9351L28.0554 9.4165H25.3955L22.4734 12.8257L21.6305 13.8184C21.3495 14.1369 21.3308 14.6239 21.6118 14.9611C21.8178 15.2046 22.4547 15.9351 22.4547 15.9351Z" fill="#17B5CB"/>
<path id="Vector_7" d="M17.5851 24.1397L11.9844 30.6583H14.6255L17.5477 27.2492L18.3906 26.2564C18.6716 25.9379 18.6903 25.4509 18.4093 25.1138C18.2033 24.8702 17.5851 24.1397 17.5851 24.1397Z" fill="#17B5CB"/>
</g>
<defs>
<clipPath id="clip0_21825_157516">
<rect width="40" height="40" fill="white"/>
</clipPath>
</defs>
</svg>
