<svg width="40" height="40" viewBox="0 0 40 40" fill="none" xmlns="http://www.w3.org/2000/svg">
<g clip-path="url(#clip0_21825_157517)">
<path d="M19.6234 37.4659C29.1278 37.4659 36.8327 29.761 36.8327 20.2566C36.8327 10.7521 29.1278 3.04724 19.6234 3.04724C10.1189 3.04724 2.41406 10.7521 2.41406 20.2566C2.41406 29.761 10.1189 37.4659 19.6234 37.4659Z" fill="white"/>
<path d="M20 0C8.95431 0 0 8.95432 0 20C0 31.0457 8.95431 40 20 40C31.0457 40 40 31.0457 40 20C40 8.9543 31.0457 0 20 0ZM29.9547 11.8583C30.6592 11.8583 31.2325 12.4392 31.2325 13.1557C31.2325 13.8723 30.6592 14.4531 29.9547 14.4531C29.2513 14.4531 28.677 13.8723 28.677 13.1557C28.677 12.4392 29.2502 11.8583 29.9547 11.8583ZM29.5324 15.6511C30.1363 15.6511 30.6253 16.1477 30.6253 16.7592C30.6253 17.3708 30.1363 17.8674 29.5324 17.8674C28.9286 17.8674 28.4396 17.3708 28.4396 16.7592C28.4396 16.1477 28.9286 15.6511 29.5324 15.6511ZM28.5008 18.7099C29.0161 18.7099 29.4318 19.1333 29.4318 19.6562V19.6585C29.4354 20.1762 29.0186 20.5988 28.5008 20.6023H28.4918C27.976 20.5957 27.5632 20.172 27.5699 19.6562C27.5699 19.1333 27.9856 18.7099 28.5008 18.7099ZM27.1006 21.0334C27.5502 21.0334 27.9123 21.4031 27.9123 21.8571C27.9123 22.3111 27.5469 22.6809 27.1006 22.6809C26.6542 22.6809 26.2888 22.3111 26.2888 21.8571C26.2888 21.4031 26.6509 21.0334 27.1006 21.0334ZM25.9935 17.4058C25.3743 17.4058 24.8732 16.8938 24.8732 16.2702C24.8732 15.6423 25.3732 15.1347 25.9935 15.1347C26.6137 15.1347 27.1137 15.6434 27.1137 16.2702V16.2725C27.1173 16.8948 26.6158 17.4022 25.9935 17.4058ZM28.3586 23.7869C28.7514 23.7869 29.0664 24.1063 29.0664 24.5024C29.0664 24.8984 28.747 25.2178 28.3586 25.2178C27.9635 25.2178 27.6432 24.8975 27.6432 24.5024C27.6432 24.1072 27.9635 23.7869 28.3586 23.7869ZM26.4376 13.9445C25.7287 13.9445 25.1566 13.3637 25.1566 12.6438C25.1566 11.924 25.7298 11.3431 26.4376 11.3431C27.1454 11.3431 27.7186 11.9284 27.7186 12.6438C27.724 13.3567 27.1505 13.939 26.4376 13.9445ZM25.9913 6.8829C26.826 6.8829 27.5042 7.57099 27.5042 8.41772C27.5042 9.26445 26.826 9.95365 25.9913 9.95365C25.1566 9.95365 24.4783 9.26884 24.4783 8.42209C24.4783 7.57534 25.1566 6.88726 25.9913 6.8829ZM24.9783 18.2208H24.9816C25.5024 18.2251 25.9211 18.6507 25.9169 19.1714C25.9169 19.6955 25.4979 20.1221 24.9783 20.1221C24.4586 20.1221 24.0396 19.6955 24.0396 19.1714C24.0396 18.6474 24.4586 18.2208 24.9783 18.2208ZM23.5834 20.5455C24.0238 20.553 24.3787 20.9084 24.3856 21.3487C24.3927 21.7995 24.0331 22.1706 23.5823 22.1777H23.5813C23.1409 22.1702 22.786 21.8147 22.7791 21.3744C22.772 20.9237 23.1316 20.5525 23.5823 20.5455H23.5834ZM24.5472 24.4094C24.5472 24.7441 24.2781 25.0176 23.9466 25.0176C23.6134 25.0141 23.3454 24.7426 23.3461 24.4094C23.3461 24.0746 23.6152 23.8011 23.9466 23.8011C24.2781 23.8011 24.5472 24.0746 24.5472 24.4094ZM22.0125 22.2072C22.4009 22.2072 22.7126 22.5223 22.7126 22.915C22.7126 23.3077 22.3976 23.6228 22.0125 23.6228C21.6243 23.6192 21.3118 23.3032 21.3124 22.915C21.3124 22.5223 21.6274 22.2072 22.0125 22.2072ZM21.3321 17.5841C21.3308 17.2059 21.6354 16.8978 22.0136 16.8949C22.391 16.8949 22.6951 17.2023 22.6951 17.5841C22.6951 17.9659 22.3866 18.2733 22.0136 18.2733C21.6395 18.2733 21.3364 17.9615 21.3321 17.5841ZM22.2915 15.7594C21.962 15.757 21.6967 15.4882 21.6985 15.1588C21.6985 14.8273 21.9644 14.5582 22.2915 14.5582C22.6186 14.5582 22.8844 14.8273 22.8844 15.1588C22.8863 15.4882 22.621 15.757 22.2915 15.7594ZM22.5004 13.2159C22.4986 12.9379 22.7224 12.7112 23.0004 12.7094H23.0015C23.2794 12.7118 23.5027 12.9391 23.5003 13.217V13.2181C23.5021 13.496 23.2783 13.7228 23.0004 13.7246L23.0006 13.7245H22.9927C22.9926 13.7245 22.9926 13.7245 22.9925 13.7244C22.7165 13.7202 22.4962 13.493 22.5004 13.217V13.2159ZM21.8068 11.5235C22.1416 11.5235 22.4151 11.797 22.4151 12.1394C22.4169 12.4773 22.1448 12.7529 21.8068 12.7553C21.4721 12.7553 21.1986 12.4785 21.1986 12.1394C21.1986 11.8003 21.4721 11.5235 21.8068 11.5235ZM21.3321 14.2517C21.333 14.6291 21.0279 14.9357 20.6505 14.9367H20.6471C20.2711 14.9358 19.9665 14.6311 19.9655 14.2551C19.9646 13.8777 20.2698 13.571 20.6471 13.5701C21.0245 13.5692 21.3312 13.8743 21.3321 14.2517ZM15.2638 22.4118C15.6445 22.4118 15.9563 22.7268 15.9563 23.1163C15.9563 23.5057 15.6489 23.8208 15.2638 23.8208V23.8207H15.2559C14.8724 23.8152 14.5659 23.4999 14.5713 23.1163V23.1128C14.569 22.728 14.879 22.4141 15.2638 22.4118ZM14.6348 21.2303C14.6348 20.8955 14.9039 20.622 15.2354 20.622C15.5668 20.622 15.836 20.8955 15.836 21.2303C15.836 21.565 15.5668 21.8385 15.2354 21.8385C14.9019 21.8355 14.6336 21.5637 14.6348 21.2303ZM15.79 24.4356C16.2364 24.4356 16.5985 24.801 16.5985 25.255C16.5985 25.709 16.2364 26.0744 15.79 26.0744C15.3437 26.0744 14.9816 25.709 14.9816 25.255C14.9816 24.801 15.3437 24.4356 15.79 24.4356ZM17.2986 17.7733L17.2919 17.7735C16.773 17.7673 16.3572 17.3417 16.3633 16.8228V16.7941C16.3712 16.2776 16.7964 15.8652 17.3129 15.8731C17.8295 15.881 18.2419 16.3062 18.2339 16.8228C18.2381 17.3435 17.8193 17.7691 17.2986 17.7733ZM18.1508 20.2676C18.1508 20.656 17.8357 20.9754 17.4507 20.9754H17.4473C17.0595 20.9724 16.7475 20.6555 16.7505 20.2676C16.7505 19.8792 17.0656 19.5598 17.4507 19.5598H17.4562C17.8435 19.5635 18.1544 19.8804 18.1508 20.2676ZM16.9529 26.6345C17.4682 26.6345 17.8839 27.0546 17.8839 27.5775C17.8869 28.0949 17.4703 28.5169 16.9529 28.5205H16.9496C16.4399 28.5119 16.0293 28.0999 16.0225 27.5901C16.0155 27.0693 16.4321 26.6415 16.9529 26.6345ZM17.1814 22.4292C17.1805 21.9902 17.5357 21.6336 17.9747 21.6327C18.4137 21.6317 18.7703 21.9869 18.7712 22.4259C18.7721 22.8649 18.4169 23.2215 17.9779 23.2224H17.9747C17.537 23.2215 17.1823 22.8669 17.1814 22.4292ZM18.2175 24.7353C18.214 24.2175 18.6308 23.7949 19.1485 23.7914C19.6638 23.7914 20.0795 24.2147 20.0795 24.7377V24.74C20.083 25.2577 19.6662 25.6803 19.1485 25.6838C18.6332 25.6838 18.2175 25.2605 18.2175 24.7375V24.7353ZM19.8804 17.7821C19.4296 17.7821 19.0643 17.4167 19.0643 16.966C19.0643 16.5153 19.4296 16.1499 19.8804 16.1499C20.3267 16.1499 20.6888 16.5153 20.6888 16.966C20.6888 17.4167 20.3267 17.7821 19.8804 17.7821ZM20.1801 10.5324C20.5575 10.5324 20.8617 10.8398 20.8617 11.2216C20.8617 11.6034 20.5575 11.9108 20.1801 11.9108C19.7995 11.9108 19.4909 11.6022 19.4909 11.2216C19.4909 10.8409 19.7995 10.5324 20.1801 10.5324ZM19.3432 13.6261C19.3456 14.0712 18.9875 14.4342 18.5424 14.4378H18.5402C18.0955 14.4342 17.738 14.0708 17.7417 13.6261C17.7417 13.1798 18.0994 12.8144 18.5424 12.8144C18.9855 12.8144 19.3432 13.1754 19.3432 13.6261ZM17.2537 10.6013C17.2513 10.1524 17.6133 9.78649 18.0622 9.78409C18.5085 9.78409 18.8706 10.1495 18.8706 10.6035C18.8706 11.0575 18.5085 11.4229 18.0622 11.4229C17.6132 11.4187 17.2519 11.0525 17.2537 10.6035V10.6013ZM16.9037 13.4904C16.9037 14.0145 16.4847 14.4411 15.965 14.4411C15.444 14.4363 15.0246 14.0116 15.0264 13.4904C15.0264 12.9664 15.4454 12.5398 15.965 12.5398C16.4847 12.5398 16.9037 12.9664 16.9037 13.4904ZM15.4815 9.50951C16.0011 9.50951 16.4201 9.93614 16.4201 10.4602C16.4201 10.9842 16.0011 11.4108 15.4815 11.4108C14.9619 11.4108 14.5429 10.9842 14.5429 10.4602C14.5429 9.93616 14.9619 9.50951 15.4815 9.50951ZM15.4104 17.3511C15.4104 17.967 14.9181 18.4669 14.3099 18.4669C13.7016 18.4669 13.2093 17.967 13.2093 17.3511C13.2093 16.7352 13.7016 16.2352 14.3099 16.2352C14.9181 16.2352 15.4104 16.7352 15.4104 17.3511ZM13.217 22.1142C12.9358 22.1142 12.7127 21.8834 12.7127 21.6022C12.7127 21.3211 12.9358 21.0903 13.217 21.0903C13.4938 21.0903 13.7213 21.3211 13.7213 21.6022C13.7213 21.8834 13.4981 22.1142 13.217 22.1142ZM13.4839 23.1579C13.4869 23.4884 13.2215 23.7587 12.891 23.7617C12.5639 23.7617 12.2981 23.4926 12.2981 23.1579C12.2981 22.8231 12.5639 22.554 12.891 22.554C13.2181 22.554 13.4839 22.8264 13.4839 23.1579C13.4839 23.1579 13.4839 23.1579 13.4839 23.1579ZM14.0648 14.0145C14.0648 14.6304 13.5714 15.127 12.9676 15.127C12.3637 15.127 11.8703 14.6304 11.8703 14.0145C11.8703 13.3986 12.3626 12.9019 12.9676 12.9019C13.5725 12.9019 14.0648 13.3986 14.0648 14.0145ZM12.4939 9.90881C13.0792 9.90881 13.5561 10.3901 13.5561 10.9864C13.5561 11.5826 13.0824 12.0639 12.4939 12.0639C11.9086 12.0639 11.4316 11.5826 11.4316 10.9864C11.4316 10.3902 11.9053 9.90881 12.4939 9.90881ZM7.60603 22.7761C6.77899 22.7761 6.10511 22.0956 6.10511 21.2565C6.10511 20.4175 6.77899 19.7348 7.60603 19.7348C8.43307 19.7348 9.10695 20.4164 9.10695 21.2555C9.10695 22.0945 8.43307 22.7761 7.60603 22.7761ZM9.6768 16.7133C8.96755 16.706 8.39849 16.1251 8.40572 15.4158V15.4134C8.40096 14.7029 8.97303 14.1232 9.68348 14.1184C10.388 14.1184 10.9612 14.6993 10.9612 15.4158C10.9612 16.1324 10.3913 16.7133 9.68348 16.7133H9.6768ZM11.0126 20.0608C10.3049 20.0608 9.72724 19.4799 9.72724 18.7557V18.7534C9.72245 18.0387 10.2979 17.4554 11.0126 17.4506C11.7204 17.4506 12.2981 18.0359 12.2981 18.7557C12.2981 19.4756 11.7248 20.0608 11.0126 20.0608ZM12.2182 25.0428C12.2182 24.6577 12.53 24.3426 12.9107 24.3426C13.2914 24.3426 13.6032 24.6544 13.6032 25.0428C13.6044 25.427 13.2949 25.7399 12.9107 25.7429C12.53 25.7429 12.2182 25.4311 12.2182 25.0428ZM13.4489 28.0009C13.0036 27.9978 12.6451 27.6344 12.6481 27.1891V27.1869C12.6457 26.7422 13.0042 26.3798 13.4489 26.3774H13.4534C13.8974 26.3817 14.254 26.7451 14.2497 27.1891V27.1914C14.2521 27.636 13.8936 27.9984 13.4489 28.0009ZM14.5998 30.4546C14.0902 30.4469 13.679 30.0356 13.6712 29.526C13.6632 29.0052 14.079 28.5766 14.5998 28.5686C15.115 28.5686 15.5307 28.992 15.5307 29.5116C15.5326 30.0285 15.1167 30.4499 14.5998 30.4546ZM16.5547 32.9609C15.9541 32.9609 15.4651 32.4643 15.4651 31.856C15.4651 31.2477 15.9508 30.7511 16.5547 30.7511C17.1553 30.7511 17.6443 31.2445 17.6443 31.856C17.6443 32.4643 17.1586 32.9609 16.5547 32.9609ZM18.9035 31.0355H18.8968C18.2908 31.0294 17.8046 30.5333 17.8106 29.9273C17.8106 29.3158 18.2996 28.8191 18.9035 28.8191C19.5073 28.8191 19.9963 29.3158 19.9963 29.9273C19.9963 30.5389 19.5073 31.0355 18.9035 31.0355ZM19.9854 27.0852C19.9812 26.475 20.4724 25.9769 21.0826 25.9726C21.6928 25.9769 22.1841 26.475 22.1799 27.0852C22.1841 27.6954 21.6928 28.1936 21.0826 28.1978C20.4788 28.1978 19.9865 27.6978 19.9854 27.0852ZM21.7401 33.3558H21.74C21.0356 33.3504 20.4689 32.7749 20.4744 32.0704C20.4744 31.3582 21.04 30.785 21.7401 30.785C22.4403 30.785 23.0058 31.3626 23.0058 32.0704C23.0058 32.7826 22.4403 33.3558 21.7401 33.3558ZM23.9248 30.5564C23.2312 30.5564 22.67 29.9864 22.67 29.283C22.67 28.5796 23.2323 28.0096 23.9248 28.0096C24.6172 28.0096 25.1795 28.5796 25.1795 29.283C25.1795 29.9864 24.6172 30.5564 23.9248 30.5564ZM25.7692 25.9794C25.7709 26.2597 25.5452 26.4883 25.2649 26.4901L25.2549 26.49C24.9771 26.4851 24.7557 26.256 24.7606 25.9781V25.9768C24.7588 25.6965 24.9846 25.4679 25.2649 25.4661C25.5416 25.4661 25.7692 25.6937 25.7692 25.9781V25.9794ZM25.5384 24.114H25.5306C25.144 24.1097 24.834 23.7928 24.8382 23.4062C24.8382 23.0178 25.15 22.6984 25.5384 22.6984H25.5439C25.9312 22.7021 26.2421 23.019 26.2385 23.4062C26.2385 23.7946 25.9267 24.114 25.5384 24.114ZM26.7702 24.9148C27.0803 24.9172 27.3299 25.1702 27.3281 25.4803C27.3281 25.7921 27.0776 26.0459 26.7702 26.0459C26.4606 26.0423 26.2116 25.79 26.2123 25.4803C26.2123 25.1686 26.4628 24.9148 26.7702 24.9148ZM27.7482 32.4905C26.9168 32.4905 26.2429 31.8057 26.2429 30.9622C26.2429 30.1188 26.9168 29.434 27.7482 29.434C28.5796 29.434 29.2535 30.1188 29.2535 30.9622C29.2535 31.8057 28.5796 32.4905 27.7482 32.4905ZM29.9219 23.7661C29.4832 23.7661 29.1288 23.404 29.1288 22.962C29.1288 22.5201 29.4832 22.158 29.9219 22.158C30.3606 22.158 30.715 22.5201 30.715 22.962C30.715 23.404 30.3606 23.7661 29.9219 23.7661ZM31.309 21.7051H31.3046C30.7832 21.6996 30.365 21.2725 30.3704 20.7511C30.3704 20.2238 30.7894 19.7972 31.309 19.7972C31.8287 19.7972 32.2477 20.2238 32.2477 20.7511C32.2477 21.2784 31.8287 21.7051 31.309 21.7051ZM32.3483 18.9745C31.7412 18.9745 31.2478 18.4746 31.2478 17.8587C31.2436 17.2466 31.7363 16.747 32.3483 16.7428C32.9566 16.7428 33.4489 17.2428 33.4489 17.8587C33.4489 18.4746 32.9566 18.9745 32.3483 18.9745Z" fill="black"/>
</g>
<defs>
<clipPath id="clip0_21825_157517">
<rect width="40" height="40" fill="white"/>
</clipPath>
</defs>
</svg>
