<svg width="40" height="40" viewBox="0 0 40 40" fill="none" xmlns="http://www.w3.org/2000/svg">
<g id="mina" clip-path="url(#clip0_21825_157523)">
<path id="Vector" d="M20.096 37.8915C29.6005 37.8915 37.3053 30.1867 37.3053 20.6822C37.3053 11.1778 29.6005 3.4729 20.096 3.4729C10.5916 3.4729 2.88672 11.1778 2.88672 20.6822C2.88672 30.1867 10.5916 37.8915 20.096 37.8915Z" fill="white"/>
<path id="Vector_2" d="M19.0547 27.156L19.1637 28.0473C19.1936 28.2914 19.2846 28.5123 19.427 28.6862C19.6053 28.904 19.8219 29.0144 20.0709 29.0144C20.2916 29.0144 20.4934 28.9317 20.6707 28.7686C20.8745 28.5812 21.0072 28.3143 21.0442 28.0172C21.0705 27.806 21.1096 27.4923 21.1582 27.1014C20.8787 27.1529 20.5745 27.1885 20.2439 27.2062C19.8053 27.2297 19.4099 27.2098 19.0547 27.156Z" fill="url(#paint0_linear_21825_157523)"/>
<path id="Vector_3" d="M23.0605 16.121C22.9336 17.2427 22.1968 23.181 21.8008 26.3657C23.6371 25.6965 23.8075 24.0647 23.9387 22.8089C23.9494 22.7061 23.9598 22.607 23.9707 22.5124C24.1002 21.3904 24.7497 15.9941 25.0704 13.3325C23.6496 13.8679 23.1796 15.0701 23.0605 16.121Z" fill="url(#paint1_linear_21825_157523)"/>
<path id="Vector_4" d="M10.5859 14.4048C10.1945 15.0033 10.1836 15.5644 10.1836 15.5701V28.6074H11.846V13.3762C11.3019 13.6111 10.8804 13.9547 10.5859 14.4048Z" fill="url(#paint2_linear_21825_157523)"/>
<path id="Vector_5" d="M13.3433 10.9857C13.0107 10.9857 12.7624 11.0715 12.6053 11.2408C12.3747 11.4894 12.3948 11.851 12.3951 11.8546L12.3958 11.8751V12.625C12.6914 12.5538 13.0185 12.5019 13.3808 12.4745C13.749 12.4467 14.0864 12.4588 14.3957 12.5034L14.3222 11.9395C14.3169 11.9018 14.1795 10.9857 13.3433 10.9857Z" fill="url(#paint3_linear_21825_157523)"/>
<path id="Vector_6" d="M15.043 13.2355L16.4359 23.9169C16.444 24.0109 16.6223 25.7854 18.4177 26.4341L17.1425 16.0124C17.1185 15.868 16.7618 13.9127 15.043 13.2355Z" fill="url(#paint4_linear_21825_157523)"/>
<path id="Vector_7" d="M26.9176 10.9857C25.9812 10.9857 25.8118 11.8022 25.7931 11.9135C25.7881 11.955 25.7583 12.2016 25.7109 12.5946C26.0481 12.5352 26.4199 12.5028 26.8304 12.5028C27.2139 12.5028 27.5576 12.5468 27.8651 12.623V11.9332C27.8651 11.932 27.8611 11.6748 27.7341 11.4308C27.5783 11.1313 27.3112 10.9857 26.9176 10.9857Z" fill="url(#paint5_linear_21825_157523)"/>
<path id="Vector_8" d="M28.4102 13.4094V28.6074H29.9563V15.5614C29.9218 15.3735 29.6398 14.058 28.4102 13.4094Z" fill="url(#paint6_linear_21825_157523)"/>
<path id="Vector_9" d="M20 0C8.95431 0 0 8.95431 0 20C0 31.0457 8.95431 40 20 40C31.0457 40 40 31.0457 40 20C40 8.95431 31.0457 0 20 0ZM30.5047 29.1542H27.8648V13.1889C27.5639 13.1009 27.221 13.0496 26.8301 13.0496C26.3852 13.0496 25.991 13.091 25.6418 13.1661C25.3326 15.7316 24.6478 21.4203 24.5146 22.5749C24.5039 22.6677 24.4937 22.7648 24.4832 22.8656C24.3457 24.1816 24.1298 26.2515 21.7266 26.9662C21.6661 27.4519 21.618 27.8382 21.5873 28.0848C21.5343 28.5103 21.3404 28.8961 21.0413 29.1711C20.7639 29.4263 20.4285 29.5612 20.0714 29.5612C19.6565 29.5612 19.2875 29.3784 19.0043 29.0327C18.7963 28.7785 18.6639 28.4608 18.6214 28.1138L18.4892 27.0334C16.1932 26.3742 15.9086 24.1454 15.89 23.9716L14.4682 13.0708C14.1557 13.0114 13.8078 12.9905 13.4206 13.0198C13.0482 13.0479 12.706 13.1039 12.3943 13.1876V29.1542H9.6381V15.5669C9.63837 15.5408 9.69032 13.5922 11.8474 12.7908V11.8823C11.8431 11.7906 11.8358 11.2643 12.2029 10.8688C12.4676 10.5834 12.8508 10.4388 13.3418 10.4388C14.3967 10.4388 14.7981 11.374 14.8629 11.8685L14.9621 12.6288C17.2385 13.3206 17.6767 15.8999 17.6816 15.9311L17.683 15.9406L18.9857 26.5886C19.3435 26.6566 19.7508 26.6851 20.2153 26.6601C20.5916 26.64 20.9283 26.5952 21.2299 26.5293C21.6177 23.4112 22.3879 17.2063 22.5177 16.0593C22.6392 14.987 23.158 13.3279 25.1437 12.7285C25.2085 12.1909 25.2485 11.8594 25.2505 11.8423L25.2516 11.8344C25.324 11.3517 25.7653 10.4388 26.9173 10.4388C28.0994 10.4388 28.4117 11.4162 28.4117 11.9331V12.8054C29.1119 13.1047 29.5733 13.578 29.8672 14.001C30.3767 14.7344 30.4965 15.4644 30.5014 15.4951L30.5047 15.5378V29.1542Z" fill="url(#paint7_linear_21825_157523)"/>
</g>
<defs>
<linearGradient id="paint0_linear_21825_157523" x1="19.0024" y1="0.510066" x2="20.5722" y2="38.3588" gradientUnits="userSpaceOnUse">
<stop stop-color="#D0D0C8"/>
<stop offset="0.49349" stop-color="#DF6633"/>
<stop offset="0.88351" stop-color="#9C6FC3"/>
</linearGradient>
<linearGradient id="paint1_linear_21825_157523" x1="22.6273" y1="0.35988" x2="24.197" y2="38.2086" gradientUnits="userSpaceOnUse">
<stop stop-color="#D0D0C8"/>
<stop offset="0.49349" stop-color="#DF6633"/>
<stop offset="0.88351" stop-color="#9C6FC3"/>
</linearGradient>
<linearGradient id="paint2_linear_21825_157523" x1="10.1805" y1="0.875978" x2="11.7503" y2="38.7247" gradientUnits="userSpaceOnUse">
<stop stop-color="#D0D0C8"/>
<stop offset="0.49349" stop-color="#DF6633"/>
<stop offset="0.88351" stop-color="#9C6FC3"/>
</linearGradient>
<linearGradient id="paint3_linear_21825_157523" x1="12.9063" y1="0.763063" x2="14.4761" y2="38.6118" gradientUnits="userSpaceOnUse">
<stop stop-color="#D0D0C8"/>
<stop offset="0.49349" stop-color="#DF6633"/>
<stop offset="0.88351" stop-color="#9C6FC3"/>
</linearGradient>
<linearGradient id="paint4_linear_21825_157523" x1="15.9341" y1="0.637343" x2="17.5039" y2="38.4861" gradientUnits="userSpaceOnUse">
<stop stop-color="#D0D0C8"/>
<stop offset="0.49349" stop-color="#DF6633"/>
<stop offset="0.88351" stop-color="#9C6FC3"/>
</linearGradient>
<linearGradient id="paint5_linear_21825_157523" x1="26.2881" y1="0.208006" x2="27.8578" y2="38.0568" gradientUnits="userSpaceOnUse">
<stop stop-color="#D0D0C8"/>
<stop offset="0.49349" stop-color="#DF6633"/>
<stop offset="0.88351" stop-color="#9C6FC3"/>
</linearGradient>
<linearGradient id="paint6_linear_21825_157523" x1="28.2725" y1="0.125628" x2="29.8423" y2="37.9744" gradientUnits="userSpaceOnUse">
<stop stop-color="#D0D0C8"/>
<stop offset="0.49349" stop-color="#DF6633"/>
<stop offset="0.88351" stop-color="#9C6FC3"/>
</linearGradient>
<linearGradient id="paint7_linear_21825_157523" x1="19.1913" y1="0.502254" x2="20.7611" y2="38.351" gradientUnits="userSpaceOnUse">
<stop stop-color="#D0D0C8"/>
<stop offset="0.49349" stop-color="#DF6633"/>
<stop offset="0.88351" stop-color="#9C6FC3"/>
</linearGradient>
<clipPath id="clip0_21825_157523">
<rect width="40" height="40" fill="white"/>
</clipPath>
</defs>
</svg>
