<svg width="40" height="40" viewBox="0 0 40 40" fill="none" xmlns="http://www.w3.org/2000/svg">
<g clip-path="url(#clip0_21825_157510)">
<path d="M19.9998 37.8005C29.8307 37.8005 37.8003 29.8309 37.8003 20C37.8003 10.169 29.8307 2.1994 19.9998 2.1994C10.1688 2.1994 2.19922 10.169 2.19922 20C2.19922 29.8309 10.1688 37.8005 19.9998 37.8005Z" fill="white"/>
<path d="M20 0C8.95429 0 0 8.95432 0 20C0 31.0457 8.95429 40 20 40C31.0457 40 40 31.0457 40 20C40 8.95432 31.0457 0 20 0ZM32.2598 29.6337C32.2598 31.076 31.0897 32.2462 29.6473 32.2462H29.103C28.3411 32.2462 27.6063 31.9197 27.1164 31.321L11.8767 13.0877C11.7678 12.9516 11.5229 13.0333 11.5229 13.2238V26.8851C11.5229 27.0756 11.7134 27.1573 11.8495 27.0484L16.884 22.6942C17.3739 22.2588 18.0542 22.8847 17.7004 23.4017L12.5842 30.9944C12.0944 31.7836 11.2507 32.2462 10.3527 32.2462C8.91034 32.2462 7.74016 31.076 7.74016 29.6337V10.3663C7.74016 8.92396 8.91034 7.75376 10.3255 7.75376H10.8698C11.6589 7.75376 12.3665 8.08033 12.8564 8.67903L28.0961 26.9123C28.205 27.0484 28.4499 26.9667 28.4499 26.7762V13.0877C28.4499 12.8972 28.2594 12.8155 28.1233 12.9244L23.0888 17.3058C22.599 17.7412 21.9186 17.1153 22.2724 16.5983L27.3886 9.0056C27.8784 8.21641 28.7221 7.75376 29.6473 7.75376C31.0897 7.75376 32.2598 8.92396 32.2598 10.3663V29.6337Z" fill="black"/>
</g>
<defs>
<clipPath id="clip0_21825_157510">
<rect width="40" height="40" fill="white"/>
</clipPath>
</defs>
</svg>
