<svg width="40" height="40" viewBox="0 0 40 40" fill="none" xmlns="http://www.w3.org/2000/svg">
<g clip-path="url(#clip0_21825_157512)">
<path d="M20 40C31.0457 40 40 31.0457 40 20C40 8.9543 31.0457 0 20 0C8.9543 0 0 8.9543 0 20C0 31.0457 8.9543 40 20 40Z" fill="#F00500"/>
<path d="M27.8147 20.6074C27.8014 20.6786 27.5922 20.8922 27.3831 21.048C26.769 21.4974 25.6698 21.9157 24.5528 22.116C23.9165 22.2317 23.2801 22.2495 23.0888 22.156C22.9642 22.0937 22.9464 22.0448 22.9909 21.8846C23.0843 21.5508 23.3869 21.1859 23.8586 20.8433C24.0989 20.6697 25.0735 20.0778 25.5274 19.8286C26.275 19.4192 26.8802 19.1745 27.2896 19.1166C27.4187 19.0988 27.5744 19.0944 27.6234 19.1166C27.7035 19.1478 27.7925 19.3836 27.8281 19.6684C27.8459 19.8197 27.837 20.4872 27.8147 20.6074Z" fill="black"/>
<path d="M17.3338 22.081C17.3071 22.1344 17.1736 22.1923 17.0223 22.2145C16.871 22.2368 16.4082 22.2234 16.1456 22.1923C15.2022 22.0677 14.201 21.7784 13.4712 21.4224C13.0618 21.2222 12.768 21.0219 12.55 20.8039L12.4254 20.6748L12.412 20.5057C12.3898 20.212 12.3942 19.7492 12.4298 19.5845C12.4521 19.4466 12.501 19.3131 12.5678 19.1929C12.5915 19.1633 12.6568 19.1484 12.7636 19.1484C12.9594 19.1484 13.124 19.1796 13.3911 19.2641C13.9384 19.4332 14.7528 19.8426 15.7451 20.439C16.564 20.9285 16.871 21.1688 17.1069 21.4981C17.2671 21.7028 17.3739 21.992 17.3338 22.081Z" fill="black"/>
<path d="M23.6338 28.2763C23.6338 28.2896 23.5804 28.5032 23.5137 28.7569C23.4469 29.0105 23.3935 29.2152 23.3935 29.2241C23.3446 29.2286 23.3001 29.233 23.2511 29.2286H23.1087L22.9129 29.6914C22.8061 29.9451 22.7082 30.1809 22.6948 30.2165L22.6681 30.2788L22.5747 30.1275L22.4812 29.9762V28.7435L22.4456 28.7524C22.37 28.7702 21.8315 28.8414 21.5957 28.8637C20.6211 28.9616 19.6421 28.9393 18.672 28.8014C18.5162 28.7791 18.3827 28.7613 18.3783 28.7658C18.3738 28.7702 18.3783 29.055 18.3872 29.4066L18.4005 30.0385L18.3249 30.1542C18.2848 30.2165 18.2448 30.2699 18.2448 30.2744C18.2314 30.2877 18.1869 30.2165 18.0846 30.0118C17.9733 29.7982 17.8932 29.5712 17.8354 29.3354L17.8042 29.2063L17.6663 29.2152L17.5283 29.2286L17.4927 29.0639C17.4749 28.9749 17.4527 28.837 17.4438 28.7613L17.4304 28.6189L17.3147 28.5166C17.248 28.4587 17.1812 28.4009 17.1679 28.392C17.1456 28.3742 17.1367 28.343 17.1367 28.3163V28.2629L17.693 28.2674L18.2492 28.2718L18.267 28.3297L18.2848 28.3875L18.4762 28.3964C18.583 28.4009 18.9212 28.4098 19.2238 28.4187L19.7801 28.432L19.9225 28.2095L20.0693 27.987H20.2562L20.2518 27.5242L20.2473 27.0614L20.0026 26.9546C19.2149 26.6075 18.7521 26.2114 18.5785 25.7308C18.5429 25.6329 18.5429 25.5973 18.534 25.1523C18.5296 24.7118 18.5296 24.6717 18.5607 24.5738C18.623 24.3513 18.7966 24.1778 19.0191 24.1199C19.0948 24.0977 19.295 24.0977 20.3452 24.0977L21.5823 24.1021L21.7203 24.1689C21.8849 24.249 21.9606 24.3068 22.0541 24.4314C22.1609 24.5738 22.192 24.6851 22.192 24.9565C22.192 25.3437 22.1653 25.6774 22.1253 25.8109C22.0674 25.9934 21.9784 26.1669 21.8671 26.3227C21.6446 26.6075 21.2397 26.8923 20.8703 27.0213L20.7635 27.0614L20.768 27.5287L20.7724 27.9959L20.8703 28.0048L20.9682 28.0137L21.1017 28.214L21.2308 28.4142H21.8271C22.1564 28.4142 22.4457 28.4187 22.4724 28.4231C22.5169 28.432 22.5257 28.4276 22.5702 28.3519L22.6236 28.2718H23.1354C23.5181 28.254 23.6338 28.2629 23.6338 28.2763Z" fill="black"/>
<path d="M21.2826 29.554C21.1981 29.603 21.1402 29.6252 21.1269 29.6163C21.1135 29.6119 21.0512 29.5585 20.9845 29.5095L20.8643 29.4116L20.7397 29.5451C20.4683 29.8388 20.4594 29.8522 20.3793 29.8566C20.2547 29.87 20.228 29.8477 20.0767 29.6208C19.9966 29.5051 19.9343 29.4072 19.9343 29.4072C19.9343 29.4072 19.8764 29.3983 19.8097 29.3938L19.6851 29.3805L19.6272 29.5006L19.5694 29.6208L19.467 29.5896C19.3869 29.5629 19.3068 29.5318 19.2312 29.4962L19.0977 29.4294V29.1758L20.2814 29.1802L21.4651 29.1847L21.4695 29.3048C21.474 29.4472 21.4785 29.4428 21.2826 29.554Z" fill="black"/>
<path d="M32.4091 24.1238C32.4047 24.106 32.4047 24.0748 32.4002 24.0259C31.3322 23.9102 28.2839 23.839 25.4536 26.1753C25.4536 26.1753 24.5414 21.9922 20.2693 21.9922C15.9973 21.9922 14.413 26.1753 14.413 26.1753C12.0189 23.5987 8.81485 23.7856 7.65783 23.9547C7.65783 23.9814 7.65338 24.0125 7.65338 24.0392C7.61778 24.6845 7.63558 24.9915 7.74238 25.3965C8.07614 26.6648 9.10411 28.0621 10.715 29.4327C13.3539 31.6755 16.9318 33.2954 19.6419 33.4823C22.4677 33.6736 26.6374 32.0226 29.4142 29.6107C29.8503 29.2235 30.2597 28.8141 30.6424 28.378C30.9183 28.0576 31.3277 27.5058 31.2966 27.5058C31.2877 27.5058 31.2966 27.4969 31.3144 27.488C31.3277 27.4791 31.3411 27.4658 31.3322 27.4569C31.3277 27.4524 31.3366 27.4391 31.35 27.4346C31.3633 27.4302 31.3722 27.4213 31.3678 27.4124C31.3633 27.4035 31.3678 27.3946 31.3856 27.3901C31.3989 27.3857 31.4034 27.3723 31.3989 27.3634C31.3945 27.3545 31.3989 27.3456 31.4078 27.3456C31.4167 27.3456 31.4256 27.3323 31.4256 27.3234C31.4256 27.3145 31.4345 27.3011 31.4434 27.3011C31.4523 27.3011 31.4612 27.2922 31.4612 27.2833C31.4746 27.2477 31.4968 27.2121 31.5191 27.181C31.5859 27.0786 31.8529 26.6025 31.8885 26.5224C32.1421 25.9483 32.3023 25.4365 32.378 24.9248C32.4047 24.68 32.4269 24.2306 32.4091 24.1238Z" fill="white"/>
<path d="M21.2826 29.554C21.1981 29.603 21.1402 29.6252 21.1269 29.6163C21.1135 29.6119 21.0512 29.5585 20.9845 29.5095L20.8643 29.4116L20.7397 29.5451C20.4683 29.8388 20.4594 29.8522 20.3793 29.8566C20.2547 29.87 20.228 29.8477 20.0767 29.6208C19.9966 29.5051 19.9343 29.4072 19.9343 29.4072C19.9343 29.4072 19.8764 29.3983 19.8097 29.3938L19.6851 29.3805L19.6272 29.5006L19.5694 29.6208L19.467 29.5896C19.3869 29.5629 19.3068 29.5318 19.2312 29.4962L19.0977 29.4294V29.1758L20.2814 29.1802L21.4651 29.1847L21.4695 29.3048C21.474 29.4472 21.4785 29.4428 21.2826 29.554Z" fill="black"/>
<path d="M23.5092 28.7524C23.4425 29.0061 23.3891 29.2108 23.3891 29.2197C23.3401 29.2241 23.2956 29.2286 23.2467 29.2241H23.1043L22.9129 29.6914C22.8061 29.9451 22.7082 30.1809 22.6948 30.2165L22.6681 30.2788L22.5747 30.1275L22.4812 29.9762V28.7435L22.4456 28.7524C22.37 28.7702 21.8315 28.8414 21.5957 28.8637C20.6211 28.9616 19.6421 28.9393 18.672 28.8014C18.5162 28.7791 18.3827 28.7613 18.3783 28.7658C18.3738 28.7702 18.3783 29.055 18.3872 29.4066L18.4005 30.0385L18.3249 30.1542C18.2848 30.2165 18.2448 30.2699 18.2448 30.2744C18.2314 30.2877 18.1869 30.2165 18.0846 30.0118C17.9733 29.7982 17.8932 29.5712 17.8354 29.3354L17.8042 29.2063L17.6663 29.2152L17.5283 29.2286L17.4927 29.0639C17.4749 28.9749 17.4527 28.837 17.4438 28.7613L17.4304 28.6189L17.3147 28.5166C17.248 28.4587 17.1812 28.4009 17.1679 28.392C17.1456 28.3742 17.1367 28.343 17.1367 28.3163V28.2629L17.693 28.2674L18.2492 28.2718L18.267 28.3297L18.2848 28.3875L18.4762 28.3964C18.583 28.4009 18.9212 28.4098 19.2238 28.4187L19.7801 28.432L19.9225 28.2095L20.0693 27.987H20.2562L20.2518 27.5242L20.2473 27.0614L20.0026 26.9546C19.2149 26.6075 18.7521 26.2114 18.5785 25.7308C18.5429 25.6329 18.5429 25.5973 18.534 25.1523C18.5296 24.7118 18.5296 24.6717 18.5607 24.5738C18.623 24.3513 18.7966 24.1778 19.0191 24.1199C19.0948 24.0977 19.295 24.0977 20.3452 24.0977L21.5823 24.1021L21.7203 24.1689C21.8849 24.249 21.9606 24.3068 22.0541 24.4314C22.1609 24.5738 22.192 24.6851 22.192 24.9565C22.192 25.3437 22.1653 25.6774 22.1253 25.8109C22.0674 25.9934 21.9784 26.1669 21.8671 26.3227C21.6446 26.6075 21.2397 26.8923 20.8703 27.0213L20.7635 27.0614L20.768 27.5287L20.7724 27.9959L20.8703 28.0048L20.9682 28.0137L21.1017 28.214L21.2308 28.4142H21.8271C22.1564 28.4142 22.4457 28.4187 22.4724 28.4231C22.5169 28.432 22.5258 28.4276 22.5703 28.3519L22.6236 28.2718H23.1354C23.5315 28.2718 23.6472 28.2763 23.6472 28.2896C23.6338 28.2852 23.576 28.5032 23.5092 28.7524Z" fill="black"/>
<path d="M32.373 23.6695C32.3641 23.4692 32.3463 23.1889 32.333 23.0509C32.1416 21.0306 31.6254 19.3796 30.6464 17.6307C30.6063 17.564 30.5707 17.4972 30.5485 17.4438C30.5396 17.4305 30.5351 17.4171 30.5307 17.4082C30.6686 16.9944 31.2338 15.2633 31.6833 13.283C32.2929 10.5952 32.6801 7.45344 31.4963 6.51002C31.4963 6.51002 29.4493 6.35872 26.7081 9.04656C25.9649 9.78972 25.2841 10.5952 24.6788 11.454L24.4875 11.3917C23.3839 11.0313 22.2402 10.8088 21.0876 10.7331C20.7405 10.7064 19.4456 10.7064 19.0228 10.7331C17.7456 10.8177 16.7666 11.009 15.6541 11.3962C15.6096 11.414 15.5696 11.4273 15.5295 11.4407C14.902 10.5863 14.2034 9.78527 13.4335 9.05101C10.581 6.34982 8.45835 6.50557 8.45835 6.50557C7.20343 7.48014 7.63064 10.7643 8.28035 13.5411C8.70755 15.379 9.23266 16.9944 9.42846 17.5773C9.41511 17.6085 9.39732 17.6441 9.37951 17.6752C8.34265 19.7757 7.78194 21.8005 7.64844 23.9543C8.8099 23.7852 12.0095 23.5938 14.4081 26.1749C14.4081 26.1749 15.9923 21.9918 20.2644 21.9918C24.5364 21.9918 25.4487 26.1749 25.4487 26.1749C28.2789 23.8386 31.3272 23.9142 32.3953 24.0255C32.3908 23.9365 32.3819 23.803 32.373 23.6695Z" fill="#FFA409"/>
<path d="M10.2682 15.9C10.2682 15.9 8.60386 11.7391 9.03106 9.36281C9.10226 8.96231 9.23576 8.61075 9.44492 8.34375C9.44492 8.34375 11.3317 8.53065 14.3756 11.9127C14.3756 11.9127 13.7971 12.1931 13.0228 12.7894C13.0228 12.7894 13.0183 12.7938 13.0139 12.7938C12.1728 13.4391 11.0959 14.4626 10.2682 15.9Z" fill="#FFA409"/>
<path d="M17.3338 22.081C17.3071 22.1344 17.1736 22.1923 17.0223 22.2145C16.871 22.2368 16.4082 22.2234 16.1456 22.1923C15.2022 22.0677 14.201 21.7784 13.4712 21.4224C13.0618 21.2222 12.768 21.0219 12.55 20.8039L12.4254 20.6748L12.412 20.5057C12.3898 20.212 12.3942 19.7492 12.4298 19.5845C12.4521 19.4466 12.501 19.3131 12.5678 19.1929C12.5915 19.1633 12.6568 19.1484 12.7636 19.1484C12.9594 19.1484 13.124 19.1796 13.3911 19.2641C13.9384 19.4332 14.7528 19.8426 15.7451 20.439C16.564 20.9285 16.871 21.1688 17.1069 21.4981C17.2671 21.7028 17.3739 21.992 17.3338 22.081Z" fill="black"/>
<path d="M27.8147 20.6074C27.8014 20.6786 27.5922 20.8922 27.3831 21.048C26.769 21.4974 25.6698 21.9157 24.5528 22.116C23.9165 22.2317 23.2801 22.2495 23.0888 22.156C22.9642 22.0937 22.9464 22.0448 22.9909 21.8846C23.0843 21.5508 23.3869 21.1859 23.8586 20.8433C24.0989 20.6697 25.0735 20.0778 25.5274 19.8286C26.275 19.4192 26.8802 19.1745 27.2896 19.1166C27.4187 19.0988 27.5744 19.0944 27.6234 19.1166C27.7035 19.1478 27.7925 19.3836 27.8281 19.6684C27.8459 19.8197 27.837 20.4872 27.8147 20.6074Z" fill="black"/>
<path d="M27.0789 12.7899L27.07 12.7855C26.3224 12.1892 25.7617 11.9088 25.7617 11.9088C28.7032 8.52675 30.5233 8.33984 30.5233 8.33984C30.7235 8.6113 30.8526 8.9584 30.9238 9.35891C31.3377 11.7352 29.7312 15.9005 29.7312 15.9005C29.0592 14.7034 28.1559 13.6443 27.0789 12.7899Z" fill="#FFA409"/>
<path d="M30.9282 9.355C30.5811 9.3105 28.9391 9.3016 27.0789 12.786L27.07 12.7816C26.3224 12.1852 25.7617 11.9049 25.7617 11.9049C28.7032 8.52284 30.5233 8.33594 30.5233 8.33594C30.728 8.60739 30.857 8.9545 30.9282 9.355Z" fill="#FF9300"/>
<path d="M29.7348 15.8981C29.0584 14.6966 28.1595 13.6419 27.0781 12.7875C28.9383 9.3031 30.5759 9.312 30.9274 9.3565C31.3413 11.7373 29.7348 15.8981 29.7348 15.8981Z" fill="#FF8300"/>
<path d="M30.9925 9.37272C30.9703 9.36827 30.948 9.36382 30.9258 9.35938L30.9925 9.37272Z" fill="#FF8300"/>
<path d="M14.3763 11.9049C14.3763 11.9049 13.7978 12.1852 13.0235 12.7816C13.0235 12.7816 13.0191 12.786 13.0146 12.786C11.0877 9.29715 9.39225 9.3105 9.02734 9.355C9.09854 8.9545 9.23205 8.60294 9.4412 8.33594C9.44565 8.33594 11.3325 8.52284 14.3763 11.9049Z" fill="#FF9300"/>
<path d="M13.0183 12.7875C12.1728 13.4372 11.0959 14.4563 10.2682 15.8981C10.2682 15.8981 8.60386 11.7373 9.03106 9.3565C9.39152 9.312 11.0915 9.30309 13.0183 12.7875Z" fill="#FF8300"/>
<path d="M9.03214 9.35938C9.00989 9.36382 8.98319 9.36828 8.96094 9.37273L9.03214 9.35938Z" fill="#FF8300"/>
<path d="M25.2302 18.2088C25.2302 18.2088 23.8061 18.2978 23.9841 17.1853C24.1622 16.0728 25.2747 15.9393 25.5862 15.9838C25.8977 16.0283 27.1437 16.4733 26.9212 17.4078C26.6987 18.3423 26.3872 18.1643 26.2092 18.2088C26.0312 18.2533 25.2302 18.2088 25.2302 18.2088Z" fill="white"/>
<path d="M14.7302 18.2088C14.7302 18.2088 13.3061 18.2978 13.4841 17.1853C13.6622 16.0728 14.7747 15.9393 15.0862 15.9838C15.3977 16.0283 16.6437 16.4733 16.4212 17.4078C16.1987 18.3423 15.8872 18.1643 15.7092 18.2088C15.5312 18.2533 14.7302 18.2088 14.7302 18.2088Z" fill="white"/>
</g>
<defs>
<clipPath id="clip0_21825_157512">
<rect width="40" height="40" fill="white"/>
</clipPath>
</defs>
</svg>
