<svg width="40" height="40" viewBox="0 0 40 40" fill="none" xmlns="http://www.w3.org/2000/svg">
<g clip-path="url(#clip0_21825_157513)">
<path d="M20 40C31.0457 40 40 31.0457 40 20C40 8.9543 31.0457 0 20 0C8.9543 0 0 8.9543 0 20C0 31.0457 8.9543 40 20 40Z" fill="#0088CC"/>
<path fill-rule="evenodd" clip-rule="evenodd" d="M14.4368 13.2175L25.6542 13.2175C26.0511 13.2175 26.4477 13.2758 26.8621 13.469C27.3589 13.7005 27.6223 14.0655 27.8069 14.3355C27.8212 14.3565 27.8347 14.3781 27.8471 14.4003C28.0641 14.7865 28.176 15.2036 28.176 15.6523C28.176 16.0785 28.0745 16.543 27.8471 16.9478C27.845 16.9517 27.8427 16.9555 27.8405 16.9593L20.7535 29.1333C20.5972 29.4018 20.3096 29.5664 19.999 29.5653C19.6883 29.5643 19.4018 29.3975 19.2475 29.1279L12.2906 16.98C12.2886 16.9767 12.2866 16.9734 12.2846 16.97C12.1254 16.7077 11.8792 16.302 11.8361 15.7784C11.7965 15.2969 11.9047 14.8145 12.1467 14.3962C12.3886 13.9778 12.7528 13.6434 13.1909 13.4387C13.6606 13.2192 14.1366 13.2175 14.4368 13.2175ZM19.1325 14.9566H14.4368C14.1283 14.9566 14.0099 14.9756 13.9271 15.0143C13.8126 15.0678 13.7165 15.1557 13.6522 15.2668C13.5879 15.378 13.5588 15.5069 13.5694 15.6359C13.5755 15.7098 13.6056 15.7944 13.7834 16.0876C13.7871 16.0938 13.7907 16.1 13.7943 16.1062L19.1325 25.4275V14.9566ZM20.8716 14.9566V25.4736L26.3334 16.0914C26.395 15.9794 26.4368 15.8175 26.4368 15.6523C26.4368 15.5182 26.409 15.4018 26.3469 15.2818C26.2817 15.188 26.242 15.1383 26.2087 15.1043C26.1802 15.0753 26.1583 15.0597 26.1273 15.0453C25.9982 14.985 25.866 14.9566 25.6542 14.9566H20.8716Z" fill="white"/>
</g>
<defs>
<clipPath id="clip0_21825_157513">
<rect width="40" height="40" fill="white"/>
</clipPath>
</defs>
</svg>
