<svg width="40" height="40" viewBox="0 0 40 40" fill="none" xmlns="http://www.w3.org/2000/svg">
<g clip-path="url(#clip0_21825_157515)">
<path d="M20.0016 32.1658C26.7205 32.1658 32.1673 26.7191 32.1673 20.0001C32.1673 13.2812 26.7205 7.83447 20.0016 7.83447C13.2827 7.83447 7.83594 13.2812 7.83594 20.0001C7.83594 26.7191 13.2827 32.1658 20.0016 32.1658Z" fill="white"/>
<path d="M39.9984 18.0867C35.4065 -8.5362 0.639973 -3.38442 0.0159992 18.0867C2.01592 19.1267 3.27986 19.7666 3.27986 19.7666C3.27986 19.7666 2.22391 20.4066 0 21.8145C3.99984 47.9255 38.1744 44.1336 39.9984 21.7825C37.8224 20.4546 36.6385 19.7506 36.6385 19.7506C36.6385 19.7506 37.6625 19.2707 39.9984 18.0867ZM22.8951 27.3823L19.6312 21.7825L16.3193 27.3823L13.8074 27.2063L18.5272 19.2547L14.2714 12.3909L16.8313 12.1669L19.8552 17.2547L22.8791 12.3909L25.263 12.4549L21.2951 19.2067L25.6629 27.3343L22.8631 27.3983L22.8951 27.3823Z" fill="#B7B5B1"/>
<path d="M38.3833 17.0468C32.1596 -6.6162 3.60073 -0.216467 1.64881 17.0468C5.61665 19.2707 6.51261 19.7987 6.51261 19.7987C6.51261 19.7987 4.97668 20.7747 1.63281 22.9026C5.88864 45.6536 36.6874 41.2698 38.3833 22.8706C35.2794 20.9187 33.4395 19.7827 33.4395 19.7827C33.4395 19.7827 37.6313 17.4468 38.3833 17.0468ZM22.8959 27.3984L19.6321 21.7986L16.3202 27.3984L13.8243 27.2224L18.5441 19.2707L14.2883 12.407L16.8482 12.183L19.8721 17.2708L22.8959 12.407L25.2798 12.471L21.328 19.2227L25.6958 27.3504L22.8959 27.4144V27.3984Z" fill="#244B81"/>
</g>
<defs>
<clipPath id="clip0_21825_157515">
<rect width="40" height="40" fill="white"/>
</clipPath>
</defs>
</svg>
